<?xml version="1.0" encoding="UTF-8" standalone="no"?>
<!-- Created with Inkscape (http://www.inkscape.org/) -->

<svg
   width="1920"
   height="1280"
   viewBox="0 0 507.99999 338.66666"
   version="1.1"
   id="svg5"
   inkscape:version="1.2.2 (732a01da63, 2022-12-09, custom)"
   sodipodi:docname="blackSavate.svg"
   xmlns:inkscape="http://www.inkscape.org/namespaces/inkscape"
   xmlns:sodipodi="http://sodipodi.sourceforge.net/DTD/sodipodi-0.dtd"
   xmlns="http://www.w3.org/2000/svg"
   xmlns:svg="http://www.w3.org/2000/svg">
  <sodipodi:namedview
     id="namedview7"
     pagecolor="#ffffff"
     bordercolor="#000000"
     borderopacity="0.25"
     inkscape:showpageshadow="2"
     inkscape:pageopacity="0.0"
     inkscape:pagecheckerboard="0"
     inkscape:deskcolor="#d1d1d1"
     inkscape:document-units="mm"
     showgrid="false"
     inkscape:zoom="0.5"
     inkscape:cx="950"
     inkscape:cy="640"
     inkscape:window-width="1920"
     inkscape:window-height="1043"
     inkscape:window-x="0"
     inkscape:window-y="0"
     inkscape:window-maximized="1"
     inkscape:current-layer="layer1" />
  <defs
     id="defs2" />
  <g
     inkscape:label="Calque 1"
     inkscape:groupmode="layer"
     id="layer1">
    <rect
       style="fill:#000000;fill-opacity:1;stroke:none;stroke-width:0.100528;stroke-linejoin:round"
       id="rect234"
       width="508.00287"
       height="338.82001"
       x="0"
       y="0" />
    <g
       aria-label="Black 
Savate"
       id="text1315"
       style="font-size:12.4685px;font-family:FreeMono;-inkscape-font-specification:'FreeMono, Normal';stroke-width:0.176719;stroke-linejoin:round">
      <path
         d="m 177.24404,66.368438 q 0.43835,-0.876693 1.75339,-0.920528 1.31504,-0.04383 4.47113,0.65752 3.1561,0.745189 6.4437,1.358875 1.40271,0.263008 2.71775,0.789024 1.31504,0.482181 1.84106,0.920528 0.83285,0.745189 0.92052,1.139701 0.13151,0.350677 -0.263,1.095867 -0.8767,1.665717 0.0438,2.805418 0.96436,1.139702 2.49858,0.306843 1.00819,-0.526016 1.44654,-0.219173 0.74519,0.438346 0.83286,2.980757 0.1315,2.542411 -0.52602,4.997152 -0.74519,3.024592 -2.10406,5.128656 -1.31504,2.06023 -3.02459,2.849254 l -1.70955,0.832859 1.35887,1.797221 q 1.0082,1.271205 1.18354,2.367072 0.21917,1.052032 0.17533,5.084826 0,3.4191 -0.263,5.17249 -0.21918,1.70955 -0.8767,3.50677 -1.75338,4.73414 -4.77798,6.26836 -3.02459,1.53421 -9.02994,0.78902 -4.12046,-0.52601 -7.8464,-1.35887 -3.68211,-0.8767 -4.4273,-1.44655 -0.56985,-0.48218 -0.39452,-2.4109 0.17534,-1.97256 1.18354,-6.13686 0.87669,-3.76978 1.49038,-3.81361 0.26301,0 0.70135,0.74519 0.39452,0.78902 1.18354,1.00819 0.83286,0.17534 1.49038,-0.26301 0.70135,-0.43834 0.78902,-1.31504 0.13151,-1.315035 -0.65752,-2.060225 -0.78902,-0.789024 -2.10406,-0.526016 -0.96436,0.175339 -1.09587,-0.175338 -0.17534,-0.65752 1.31504,-6.399862 0.0877,-0.394512 0.30684,-1.22737 1.31504,-5.128657 2.84926,-14.246267 1.57805,-9.117611 2.10406,-10.081974 z m 10.65183,8.197083 q -0.74519,-0.482182 -1.05204,-0.482182 -0.30684,0 -1.1397,4.471137 -0.78902,4.471136 -1.1397,6.136853 -0.17534,0.964363 -0.0877,1.31504 0.0877,0.306843 0.56985,0.306843 0.92053,0 1.70955,-1.884891 0.78903,-1.884891 1.27121,-5.303995 0.39451,-2.586245 0.35068,-3.419104 0,-0.832859 -0.48218,-1.139701 z m -4.07663,24.898091 q 0.52602,-2.498576 0.52602,-3.857451 0,-1.402709 -0.65752,-2.323237 -0.43835,-0.569851 -0.78903,0.482181 -0.39451,1.139702 -1.53421,6.662865 -1.66572,8.02175 -1.44654,8.28476 0.21917,0.21917 1.2712,-0.35068 1.05203,-0.56985 1.57805,-3.50677 0.56985,-2.93693 1.05203,-5.391668 z"
         style="font-size:89.7734px;font-family:'Parents Suck';-inkscape-font-specification:'Parents Suck, Normal';text-align:center;text-anchor:middle;fill:#ff3434"
         id="path2588" />
      <path
         d="m 203.3695,66.193099 q 0.0438,-0.350677 5.08482,-0.350677 h 5.04099 l 0.30684,3.156096 q 0.39452,3.506773 -0.17533,14.509275 -0.52602,11.002502 -1.09587,11.528518 -0.61369,0.56985 -0.83286,0.08767 -0.43835,-1.227371 -0.92053,-1.578048 -0.43834,-0.350677 -1.09586,0.04384 -0.8767,0.526016 -1.84106,2.454741 -0.96436,1.928725 -0.70136,2.63008 0.35068,0.920528 1.62189,0.745189 1.31504,-0.219173 2.23557,-1.31504 0.83285,-0.964362 1.09586,-1.008197 0.30684,-0.08767 0.78903,0.569851 0.70135,0.920528 1.00819,3.287599 0.30685,2.32324 0.0877,4.82181 l -0.26301,2.76159 4.20813,-0.0877 q 1.66572,-0.0438 2.58625,0.0438 0.96436,0.0438 1.66572,0.21918 0.74518,0.17534 1.00819,0.65752 0.30685,0.48218 0.43835,1.09586 0.1315,0.61369 0.1315,1.70956 0,1.70955 -0.21917,2.23556 -0.21917,0.48219 -1.18354,0.83286 -1.40271,0.56985 -10.21347,0.39451 -5.304,-0.1315 -7.14505,-0.30684 -1.84106,-0.17534 -2.1479,-0.65752 -0.39451,-0.52601 -0.17534,-22.355679 0.26301,-21.873499 0.70135,-26.125462 z m 1.05204,2.191734 q 0.52601,-0.74519 0.52601,-1.139702 0,-0.394512 -0.52601,-0.394512 -0.21918,0 -0.39452,0.350678 -0.1315,0.350677 -0.1315,0.832858 0,0.74519 0.17534,0.74519 0.0877,0 0.35068,-0.394512 z m 8.63542,-0.74519 q 0,-0.789024 -0.52601,-0.789024 -0.48218,0 -0.48218,0.526016 0,0.482182 0.52601,0.74519 0.21918,0.175338 0.35068,0.04383 0.1315,-0.175338 0.1315,-0.526016 z m -2.2794,0.74519 q 0.13151,-0.175339 -0.0877,-0.306843 -0.21917,-0.175339 -0.65752,-0.175339 -0.39451,0 -0.70135,0.175339 -0.30684,0.131504 -0.30684,0.350677 0,0.175339 0.17533,0.350678 0.21918,0.131504 0.52602,0.131504 0.74519,0 1.05203,-0.526016 z m -2.80542,1.753386 q 0,-0.745189 -1.05203,0.65752 -0.48218,0.613686 -0.48218,0.65752 0.0438,0 0.65752,-0.438346 0.87669,-0.701355 0.87669,-0.876694 z m 2.06023,1.008198 q 0,0.526016 0.61369,-0.08767 0.61368,-0.613685 0.35068,-0.832858 -0.26301,-0.263008 -0.61369,0.08767 -0.35068,0.350677 -0.35068,0.832859 z m -1.44654,2.936922 q 0.65752,-2.279402 0.0877,-2.454741 -0.13151,-0.08767 -0.35068,0.131504 -0.35068,0.350677 -0.30684,2.191733 l 0.0877,1.841057 z m 3.81361,5.873846 q 0.26301,-0.876693 0,-1.534213 -0.1315,-0.350678 -0.21917,0.219173 -0.0438,0.263008 -0.0438,0.701355 0,0.876693 0.1315,0.876693 0.0877,0 0.1315,-0.263008 z m -8.15324,8.153248 q 0.21917,-0.876693 0,-1.797221 -0.13151,-0.526016 -0.21918,0.219173 0,0.263008 0,0.701355 0,1.139701 0.13151,1.095866 0.0438,-0.04383 0.0877,-0.219173 z m 5.83001,-1.095867 q 0.0438,0.964363 0.30684,0.306843 0.26301,-0.65752 -0.0438,-0.964363 -0.17534,-0.175338 -0.26301,0.219174 0,0.175338 0,0.438346 z m -4.12046,4.471137 q 0,0.526016 0.61368,-0.08767 0.61369,-0.613685 0.35068,-0.832858 -0.26301,-0.263008 -0.61368,0.08767 -0.35068,0.350677 -0.35068,0.832859 z m 5.96151,0.394512 q 0.21918,-0.65752 -0.0438,-0.964363 -0.17534,-0.131504 -0.26301,0.263008 -0.0438,0.175339 0,0.394512 0,0.526016 0.1315,0.569851 0.0438,0.04383 0.17534,-0.263008 z m 0.65752,9.073775 q 0,-0.74519 -0.52601,-1.534213 -0.30685,-0.482181 -0.39451,-0.482181 -0.0877,0 -0.0877,0.482181 0,0.789023 0.48218,1.534213 0.35067,0.48218 0.43834,0.48218 0.0877,0 0.0877,-0.48218 z m -3.72594,1.62188 q 0.263,-0.65752 -0.0438,-0.96436 -0.17534,-0.17534 -0.26301,0.21917 0,0.21918 0,0.43835 0.0438,0.52602 0.13151,0.56985 0.0877,0 0.17534,-0.26301 z m 1.53421,1.57805 q 0.21917,-1.18353 -0.0438,-2.06023 -0.0877,-0.43834 -0.17534,0.13151 -0.0438,0.39451 0,1.00819 0,1.27121 0.1315,1.18354 0.0438,0 0.0877,-0.26301 z m -4.2958,3.41911 q -0.21917,-0.92053 -0.43834,-0.96437 -0.21918,-0.0438 -0.21918,0.70136 0,0.70135 0.48218,1.00819 0.21918,0.13151 0.26301,-0.263 0,-0.17534 -0.0877,-0.48218 z m -0.78902,6.00535 q 0.17534,-0.0438 0,-0.61369 -0.17534,-0.61369 -0.52602,-1.31504 l -0.96436,-1.79722 0.30684,1.75338 q 0.26301,1.44655 0.48218,1.84106 0.21918,0.35068 0.70136,0.13151 z m 2.71775,-1.53422 q 0.56985,-0.17534 -0.52602,-0.96436 -0.0877,-0.0438 -0.17534,-0.0877 -0.48218,-0.30684 -0.74519,-0.43835 -0.21917,-0.1315 -0.39451,-0.1315 -0.1315,0 -0.17534,0.1315 -0.0438,0.0877 -0.0438,0.35068 0,0.65752 0.65752,1.05203 0.70135,0.35068 1.40271,0.0877 z m 12.71205,-0.92053 q 0.52602,0 0.21917,-0.48218 -0.30684,-0.52601 -0.52601,-0.52601 -0.21917,0 -0.21917,0.52601 0,0.48218 0.52601,0.48218 z m -2.80542,0.56985 q -2.10406,-0.56985 -4.33963,-0.52601 -0.61368,0 -0.43835,0.1315 0.17534,0.17534 3.24377,0.48218 2.49858,0.26301 1.88489,0 -0.1315,-0.0438 -0.35068,-0.0877 z m -7.27655,1.84106 q 0.39451,-0.17534 -0.17534,-0.21917 -0.26301,-0.0438 -0.70136,-0.0438 -0.87669,0 -0.87669,0.13151 0,0.0438 0.21917,0.1315 0.92053,0.21917 1.53422,0 z m 10.43265,-0.0438 q 0.1315,-0.17534 -0.26301,-0.26301 -0.17534,-0.0438 -0.43835,0 -0.96436,0.0438 -0.30684,0.30684 0.70136,0.21917 1.0082,-0.0438 z"
         style="font-size:89.7734px;font-family:'Parents Suck';-inkscape-font-specification:'Parents Suck, Normal';text-align:center;text-anchor:middle;fill:#ff3434"
         id="path2590" />
      <path
         d="m 237.73589,61.152113 q 1.18353,-0.306843 5.96151,-0.263008 4.77798,0 5.26016,0.350677 0.30684,0.175339 0.87669,2.279403 0.61369,2.060229 1.18354,4.821813 l 1.40271,6.706704 -1.97256,1.665718 q -1.40271,1.271205 -2.10407,2.980757 -0.70135,1.709552 -0.39451,3.199931 0.17534,0.789024 1.62189,1.621882 1.44654,0.789024 2.71774,0.789024 0.83286,0 1.09587,0.613686 0.35068,0.745189 1.0082,4.997152 0.87669,5.654672 2.10406,9.862798 1.27121,4.1643 1.27121,6.39986 v 2.27941 l -5.26016,-0.39452 q -5.21633,-0.35067 -5.567,-0.70135 -0.35068,-0.30684 -1.18354,-4.33963 -0.78902,-4.076627 -0.78902,-5.479336 0,-1.052032 -0.35068,-1.271205 -0.35068,-0.219174 -2.1479,-0.219174 -2.49858,0 -2.80542,0.832859 -0.30684,0.832859 -0.30684,5.873846 0,4.20813 -0.30684,4.86565 -0.21918,0.39451 -1.09587,0.83286 -1.31504,0.61368 -1.57805,2.14789 -0.21917,1.49038 0.39451,5.65468 0.56985,3.98895 0.70136,11.22167 0.17534,7.27656 -0.30685,8.5916 -0.17533,0.56985 -0.52601,0.96436 -0.35068,0.43835 -0.65752,0.43835 -0.87669,0 -1.22737,-1.18354 -0.30684,-1.1397 0.0438,-3.1561 0.70136,-4.29579 0.30685,-11.52851 -0.39452,-7.27656 -1.44655,-8.50393 -0.96436,-1.18353 -1.88489,-0.17534 -0.87669,1.0082 -0.65752,2.93693 0.1315,1.09586 -0.61369,2.54241 -0.39451,0.83285 -0.48218,2.10406 -0.0438,1.22737 0.17534,3.94512 0.39451,4.55881 0.70136,18.10372 0.30684,13.54491 0.48218,17.79687 0.1315,2.84926 0,3.50678 -0.0877,0.70135 -0.74519,0.70135 -0.56985,0 -0.78903,-0.35068 -0.21917,-0.35067 -0.263,-1.31504 -0.0438,-1.66571 -0.26301,-4.47113 -0.43835,-5.65467 -0.61369,-23.80223 -0.17534,-18.14755 0.17534,-19.94477 0.21918,-0.96436 0,-1.84106 -0.21917,-0.87669 -1.05203,-2.36707 l -1.44654,-2.54241 1.35887,-2.71775 q 2.84925,-5.74234 4.20813,-15.517471 0.83286,-5.654673 2.2794,-13.325739 1.49038,-7.671067 1.88489,-11.353179 0.13151,-1.534214 0.35068,-2.63008 0.26301,-1.095867 0.43835,-1.095867 0.48218,0 0.17534,-0.438347 -0.0877,-0.175338 0.0877,-0.394512 0.17534,-0.219173 0.56986,-0.306842 z m 5.47933,27.747344 q 0.74519,0 0.70135,-1.928725 -0.0438,-1.928726 -0.39451,-4.471136 l -0.39451,-2.542411 -0.35068,3.243765 q -0.35068,3.594443 -0.30684,4.646475 0.0877,1.052032 0.74519,1.052032 z"
         style="font-size:89.7734px;font-family:'Parents Suck';-inkscape-font-specification:'Parents Suck, Normal';text-align:center;text-anchor:middle;fill:#ff3434"
         id="path2592" />
      <path
         d="m 285.51567,71.321755 q -0.35068,-0.350677 0.13151,-0.306842 0.52601,0 1.00819,0.350677 0.48218,0.394512 0.48218,1.271205 0,0.876694 -0.56985,1.446544 -0.61368,0.613686 -1.22737,-0.219173 -0.61368,-0.832859 -0.0438,-1.534213 0.56985,-0.65752 0.21917,-1.008198 z m -9.33678,-7.627232 q 0,-0.789024 0.1315,-0.789024 0.17534,0 0.96436,1.095867 l 1.0082,1.446544 1.0082,-1.095867 q 1.53421,-1.621882 1.88489,-0.701354 0.0877,0.175338 0.0877,0.438346 0,0.306843 0.1315,0.569851 0.17534,0.219173 0.39452,0.219173 0.21917,0 0.35067,0.306843 0.13151,0.263008 0.13151,0.65752 0,0.65752 0.30684,0.745189 0.30684,0.08767 1.40271,-0.219173 1.70955,-0.526016 1.79722,-0.394512 0.1315,0.08767 -1.0082,1.008197 -0.0877,0.08767 -0.17534,0.175339 -1.00819,0.789024 -1.18353,1.183536 -0.13151,0.394512 0.26301,1.052032 0.61368,1.052032 0.52601,7.32039 l -0.1315,6.312192 -3.94512,-0.08767 q -1.31504,0 -1.84106,0 -0.52601,0 -1.35887,-0.08767 -0.78903,-0.131504 -1.0082,-0.175339 -0.17534,-0.04383 -0.61369,-0.350677 -0.39451,-0.350677 -0.43834,-0.482181 0,-0.175339 -0.13151,-0.832859 -0.1315,-0.701355 -0.1315,-1.095867 0.0438,-0.394512 0.0438,-1.490378 0,-2.323238 -0.17533,-3.156097 -0.17534,-0.876693 -0.65752,-1.052032 -0.78903,-0.306842 -0.48219,-1.008197 0.26301,-0.789024 -0.1315,-0.701355 -0.56985,0.08767 -1.09587,1.095867 -0.0438,0.08767 -0.0877,0.175339 -0.56985,1.22737 -0.0438,12.142203 0.56985,10.914832 0.30684,15.73665 -0.35067,6.26835 0.83286,6.09301 0.26301,-0.0438 0.61369,-0.35067 0.61368,-0.61369 0.78902,-5.39167 0,-0.35067 0.0438,-1.09586 0.0438,-1.358879 0.0438,-1.928729 0.0438,-0.613686 0.1315,-1.446544 0.13151,-0.876694 0.17534,-1.095867 0.0438,-0.263008 0.30685,-0.65752 0.30684,-0.438347 0.43834,-0.482181 0.17534,-0.04384 0.70136,-0.175339 0.56985,-0.131504 0.92052,-0.08767 0.39452,0 1.27121,0 0.48218,0 0.74519,0 1.57805,0 2.36707,0.04383 0.78903,0 1.57805,0.263008 0.78902,0.263008 1.05203,0.569851 0.26301,0.306843 0.52602,1.227371 0.30684,0.876693 0.35067,1.797221 0.0438,0.920528 0.13151,2.717754 0.1315,4.64647 -0.43835,6.92587 -0.56985,2.23557 -2.32324,3.76978 -2.4109,2.10407 -6.61903,2.76159 -4.16429,0.65752 -8.06558,-0.35068 -3.90128,-1.05203 -5.61084,-3.37527 -0.87669,-1.18353 -1.40271,-4.51497 -0.52601,-3.37527 -0.1315,-4.95332 0.26301,-0.92052 0.65752,-1.22737 0.39451,-0.35067 1.40271,-0.48218 1.44654,-0.1315 2.36707,-1.271204 0.92053,-1.183536 0.52602,-2.367072 -0.30685,-1.052032 -1.53422,-1.797221 -1.18353,-0.789024 -2.32323,-0.65752 l -1.22737,0.131504 -0.13151,-10.60799 q -0.0877,-7.23272 0.0438,-9.29295 0.1315,-2.060229 0.83286,-3.594442 0.65752,-1.534214 2.54241,-3.199931 1.92872,-1.665717 3.02459,-1.665717 0.52601,0 1.09586,-1.052032 0.61369,-1.095867 1.18354,-0.526016 0.56985,0.56985 3.76978,0.56985 2.27941,0 2.76159,-0.175338 0.48218,-0.175339 0.48218,-1.008198 z M 265.26406,81.31606 q 0.263,-0.65752 -0.0438,-0.964363 -0.17534,-0.175339 -0.21917,0.219173 -0.0438,0.219174 -0.0438,0.438347 0.0438,0.526016 0.13151,0.569851 0.0877,0 0.17534,-0.263008 z m 19.33108,-19.024246 q 0.30685,-0.482181 0.52602,-0.482181 0.21917,0 0.21917,0.526016 0,0.482181 -0.52601,0.482181 -0.21918,0 -0.30685,-0.131504 -0.0438,-0.175339 0.0877,-0.394512 z"
         style="font-size:89.7734px;font-family:'Parents Suck';-inkscape-font-specification:'Parents Suck, Normal';text-align:center;text-anchor:middle;fill:#ff3434"
         id="path2594" />
      <path
         d="m 294.63328,66.675281 q 1.0082,-0.219174 3.68211,-0.263008 1.05203,-0.04384 1.66572,0.04383 0.61368,0.04384 1.18354,0.263008 0.56985,0.219174 0.74518,0.65752 0.21918,0.438347 0.43835,1.139702 0.21917,0.65752 0.13151,1.665717 -0.0438,1.008197 -0.0438,2.367072 -0.21917,4.427302 0.0877,4.120459 0.35068,-0.394512 2.01639,-5.084822 1.18354,-3.331434 1.66572,-4.032789 0.48218,-0.745189 1.62189,-0.964363 1.84105,-0.306842 4.99715,0.175339 3.15609,0.482181 3.55061,1.139701 0.48218,0.74519 -2.76159,11.177841 l -3.19993,10.43265 2.06023,7.627233 q 2.10406,7.627235 4.25196,12.887395 2.19174,5.26016 1.70955,5.74234 -0.56985,0.56985 -3.2876,0.78902 -2.71774,0.21918 -5.6985,-0.0877 l -3.85745,-0.35067 -0.52602,-1.88489 q -0.48218,-1.84106 -1.35887,-5.78618 -0.83286,-3.98896 -1.13971,-4.16429 -0.0877,-0.0438 -0.17533,0.70135 -0.0877,0.74519 -0.17534,2.10406 -0.0877,1.35888 -0.13151,2.93693 -0.17534,5.91768 -0.78902,6.31219 -0.56985,0.39451 -4.90948,0.39451 -4.2958,0 -4.82182,-0.39451 -0.52601,-0.39451 -0.70135,-3.94512 l -0.13151,-3.59444 2.06023,-0.83286 q 1.31504,-0.48218 1.70956,-0.92053 0.39451,-0.43835 0.39451,-1.31504 0,-1.27121 -0.8767,-2.23557 -0.83285,-1.0082 -1.92872,-1.0082 -1.35888,0 -1.75339,-0.92052 -0.61368,-1.35888 -0.56985,-8.898441 0,-0.569851 0,-1.227371 0.0438,-5.654672 0.21918,-7.758736 0.17533,-2.104064 0.56985,-2.586246 0.70135,-0.789024 0.70135,-1.534213 0,-0.745189 -0.70135,-1.709552 -0.56985,-0.745189 -0.74519,-3.419104 -0.13151,-2.71775 0.30684,-4.295798 0.1315,-0.482181 0.56985,-0.876693 0.48218,-0.438347 1.05203,-0.613685 0.96436,-0.263008 1.0082,-0.394512 0,-0.08767 -0.65752,-0.350678 -0.65752,-0.263008 -0.65752,-0.350677 0,-0.175339 3.19993,-0.876693 z m 5.69851,5.084821 q 0.263,-0.920528 -0.0438,-2.147899 -0.30684,-1.22737 -1.44654,-1.183536 h -1.1397 l 1.1397,0.482182 q 1.1397,0.438346 1.18353,2.147898 0.0438,1.052032 0.17534,0.964363 0.0877,0 0.13151,-0.263008 z m 13.2819,-1.446544 q 0.0877,-1.402709 -0.65752,-1.402709 -0.30684,0 -0.56985,0.175338 -0.21917,0.131504 -0.21917,0.350678 0,0.526016 0.48218,0.263008 0.21917,-0.131504 0.39451,0.131504 0.21917,0.263008 0.30684,0.745189 l 0.17534,0.65752 q 0.0438,-0.04384 0.0877,-0.920528 z m -21.21598,1.534213 q 0.0877,-0.526016 0.0877,-0.964362 0.0438,-0.438347 0.0438,-0.701355 0,-0.263008 -0.0438,-0.263008 -0.30684,0 -0.48218,0.920528 -0.17534,0.876693 -0.0438,1.709552 0.1315,0.964363 0.30684,0.08767 0.0438,-0.306842 0.1315,-0.789024 z m 5.04099,-1.183536 q 0,-0.263008 -0.17534,-0.482181 -0.1315,-0.263008 -0.35068,-0.263008 -0.17534,0 -0.21917,0.263008 -0.0438,0.219173 0.0438,0.482181 0.30685,0.789024 0.48219,0.789024 0.21917,0 0.21917,-0.789024 z m -2.06023,1.534214 q 0.52602,-0.306843 0.52602,-0.526016 0,-0.219174 -0.52602,-0.219174 -0.48218,0 -0.48218,0.526016 0,0.526016 0.48218,0.219174 z m 11.70386,0.789024 q 0.17533,-0.306843 0.21917,-0.526016 0.0877,-0.219174 0.0438,-0.350678 -0.0438,-0.131504 -0.17533,-0.131504 -0.17534,0 -0.39452,0.306843 -0.21917,0.263008 -0.35067,0.701355 -0.0438,0.263008 -0.0877,0.526016 -0.0438,0.219173 -0.0438,0.350677 0,0.131504 0.0438,0.131504 0.21917,0 0.74519,-1.008197 z m 5.83001,0.745189 q 0.35067,-1.358875 0.1315,-1.578048 -0.1315,-0.131504 -0.30684,0.263008 -0.13151,0.306843 -0.26301,0.832859 -0.35068,1.358874 -0.1315,1.578048 0.1315,0.08767 0.30684,-0.263008 0.1315,-0.306843 0.26301,-0.832859 z m -6.4437,22.881697 q 0,-1.008198 -0.39451,-2.542411 -0.26301,-0.964363 -0.30684,-1.052032 l -0.0877,0.306843 q 0,0.175338 0,0.526016 0,1.271205 0.39451,2.54241 0.21917,0.701355 0.30684,0.789024 0.0877,-0.350677 0.0877,-0.56985 z m -13.2819,1.88489 q 0.263,-0.65752 -0.0438,-0.964362 -0.17534,-0.175339 -0.21917,0.263008 -0.0438,0.175338 0,0.394512 0,0.526016 0.0877,0.56985 0.0877,0 0.17534,-0.263008 z m 11.22167,2.060231 q 0.26301,-0.657521 -0.0438,-0.964364 -0.17534,-0.175339 -0.26301,0.219173 0,0.175339 0,0.438351 0,0.52601 0.1315,0.52601 0.0438,0.0438 0.17534,-0.21917 z m 6.66287,3.72595 q 0.30684,-0.26301 -0.35068,-0.92053 -0.35067,-0.35068 -0.43834,-0.30685 -0.0438,0.0438 0.1315,0.61369 0.1315,0.35068 0.30684,0.56985 0.21918,0.17534 0.35068,0.0438 z m -0.70135,3.2876 q -0.30685,-1.27121 -1.05204,-2.54242 l -0.74519,-1.2712 0.35068,1.2712 q 0.30684,1.27121 1.05203,2.54242 l 0.74519,1.2712 z m -10.7395,4.38346 q -0.30684,-2.80542 -0.52601,-2.76158 -0.13151,0.0438 -0.13151,2.1479 0,0.74519 -0.0438,1.18353 -0.0438,0.43835 -0.13151,0.70136 -0.0877,0.26301 -0.21917,0.30684 -0.1315,0 -0.39451,-0.0438 -0.30684,-0.0877 -0.52602,-0.0438 -0.21917,0.0438 -0.21917,0.21917 0,0.13151 0.35068,0.35068 0.39451,0.21918 0.87669,0.30684 0.92053,0.13151 1.05203,-0.17533 0.13151,-0.30685 -0.0877,-2.19174 z m -3.76978,2.23557 q 0.56985,0 0.56985,-0.48218 0,-0.52602 -0.26301,-0.52602 -0.21917,0 -0.52601,0.52602 -0.30685,0.48218 0.21917,0.48218 z"
         style="font-size:89.7734px;font-family:'Parents Suck';-inkscape-font-specification:'Parents Suck, Normal';text-align:center;text-anchor:middle;fill:#ff3434"
         id="path2596" />
      <path
         d="m 172.90441,178.05917 q 1.2712,-0.39451 5.83001,-0.43835 3.2876,-0.0438 5.26016,0.43835 2.0164,0.48218 3.2876,1.88489 1.31504,1.35888 1.84106,3.59444 0.52601,2.19174 0.65752,5.87385 l 0.17534,4.99715 -4.82182,-0.17534 -4.82181,-0.1315 -0.35068,-3.63828 q -0.48218,-5.567 -1.40271,-5.74234 -0.43835,-0.0438 -1.09587,0.74519 -0.61368,0.74519 -0.39451,3.24377 0.21918,2.10406 1.79722,4.5588 1.57805,2.45474 5.52317,6.83821 1.27121,1.40271 2.63008,3.2876 1.35888,1.88489 1.97256,3.06843 1.0082,1.92872 1.22737,3.19993 0.26301,1.2712 0.21918,4.51497 0,4.16429 -0.61369,6.31219 -0.56985,2.10406 -2.1479,3.59444 -0.96436,0.8767 -1.97256,1.22737 -1.00819,0.35068 -3.72594,0.61369 -11.48469,1.22737 -14.77229,-3.98896 -0.74519,-1.2712 -0.96436,-2.49857 -0.17534,-1.27121 -0.17534,-4.95332 0,-5.52317 0.61369,-5.74234 0.21917,-0.0877 0.30684,-0.35068 0.1315,-0.26301 0,-0.56985 -0.0877,-0.26301 0,-0.39451 0.1315,-0.13151 0.52602,-0.21917 0.43834,-0.0877 1.1397,-0.0877 0.70135,-0.0438 1.92872,-0.0438 h 3.85745 l 0.0438,1.62188 0.0877,1.66572 0.39451,-1.53421 q 0.30684,-1.1397 0.39451,0.0877 0.0438,0.61368 0.0877,1.97256 0.0877,6.22452 1.62188,7.40806 0.78903,0.65752 1.70956,-0.74519 0.96436,-1.44655 1.09586,-3.90129 0.13151,-2.45474 -0.65752,-3.90128 -0.39451,-0.70136 -2.49857,-3.0246 -2.10407,-2.32323 -4.69031,-4.90948 -3.85745,-3.90128 -5.04099,-5.39166 -1.18354,-1.49038 -1.18354,-2.36708 0,-1.2712 0.52602,-2.01639 0.56985,-0.74519 1.49038,-0.74519 0.87669,0 1.40271,-0.56985 0.56985,-0.61369 0.30684,-1.27121 -0.0877,-0.263 -0.48218,-0.48218 -0.35068,-0.21917 -0.74519,-0.21917 -1.1397,0 -1.88489,-1.40271 -0.70136,-1.44654 -0.48218,-3.24376 0.26301,-2.0164 0.92053,-2.76159 0.52601,-0.65752 2.54241,-1.75339 2.06023,-1.09586 3.50677,-1.53421 z m 8.02174,14.37777 q 0.21918,-0.61368 0,-1.2712 -0.17533,-0.39452 -0.263,0.1315 0,0.21917 0,0.52602 0,0.78902 0.1315,0.78902 0.0438,-0.0438 0.1315,-0.17534 z m -13.76408,2.0164 q 0.26301,-0.65752 -0.0438,-0.96437 -0.17534,-0.17533 -0.21917,0.21918 -0.0438,0.17534 -0.0438,0.43834 0.0438,0.52602 0.1315,0.56985 0.0877,0 0.17534,-0.263 z m 14.81612,13.67641 q 0.21917,-0.65752 -0.30685,-1.18353 -0.35067,-0.35068 -0.35067,-0.0438 0,0.17534 0.1315,0.70136 0.17534,0.70135 0.39451,0.70135 0.0877,0 0.13151,-0.17534 z m 5.6985,2.23557 q 0.43835,1.0082 0.48218,0.26301 0.0438,-0.74519 -0.48218,-1.53421 -0.48218,-0.74519 -0.43834,-0.21918 0,0.48218 0.43834,1.49038 z m -5.04098,5.12866 q 0.0438,0.96436 0.30684,0.30684 0.26301,-0.65752 -0.0438,-0.96436 -0.17533,-0.17534 -0.21917,0.26301 -0.0438,0.17533 -0.0438,0.39451 z m -11.22168,3.15609 q 0,-0.65752 -0.52602,-1.40271 -0.17533,-0.263 -0.263,-0.35067 -0.0877,-0.0877 -0.17534,-0.0438 -0.0438,0.0438 -0.0877,0.21918 0,0.17533 0,0.52601 0,1.1397 0.52601,1.40271 0.21918,0.1315 0.35068,0.0438 0.17534,-0.13151 0.17534,-0.39452 z"
         style="font-size:89.7734px;font-family:'Parents Suck';-inkscape-font-specification:'Parents Suck, Normal';text-align:center;text-anchor:middle;fill:#ff3434"
         id="path2598" />
      <path
         d="m 204.42154,173.36886 q 1.18353,-0.30684 5.96151,-0.26301 4.77798,0 5.26016,0.35068 0.30684,0.17534 0.87669,2.2794 0.61369,2.06023 1.18354,4.82182 l 1.40271,6.7067 -1.97256,1.66572 q -1.40271,1.2712 -2.10406,2.98076 -0.70136,1.70955 -0.39452,3.19993 0.17534,0.78902 1.62189,1.62188 1.44654,0.78902 2.71775,0.78902 0.83285,0 1.09586,0.61369 0.35068,0.74519 1.0082,4.99715 0.87669,5.65467 2.10406,9.8628 1.27121,4.16429 1.27121,6.39986 v 2.27941 l -5.26016,-0.39452 q -5.21633,-0.35067 -5.567,-0.70135 -0.35068,-0.30684 -1.18354,-4.33963 -0.78902,-4.07663 -0.78902,-5.47934 0,-1.05203 -0.35068,-1.2712 -0.35068,-0.21918 -2.1479,-0.21918 -2.49858,0 -2.80542,0.83286 -0.30684,0.83286 -0.30684,5.87385 0,4.20813 -0.30684,4.86565 -0.21918,0.39451 -1.09587,0.83286 -1.31504,0.61368 -1.57805,2.14789 -0.21917,1.49038 0.39451,5.65468 0.56985,3.98895 0.70136,11.22167 0.17534,7.27656 -0.30684,8.5916 -0.17534,0.56985 -0.52602,0.96436 -0.35068,0.43835 -0.65752,0.43835 -0.87669,0 -1.22737,-1.18354 -0.30684,-1.1397 0.0438,-3.1561 0.70136,-4.29579 0.30685,-11.52851 -0.39452,-7.27656 -1.44655,-8.50393 -0.96436,-1.18354 -1.88489,-0.17534 -0.87669,1.0082 -0.65752,2.93692 0.1315,1.09587 -0.61368,2.54242 -0.39452,0.83285 -0.48219,2.10406 -0.0438,1.22737 0.17534,3.94512 0.39451,4.5588 0.70136,18.10372 0.30684,13.54491 0.48218,17.79687 0.1315,2.84926 0,3.50678 -0.0877,0.70135 -0.74519,0.70135 -0.56985,0 -0.78902,-0.35068 -0.21918,-0.35067 -0.26301,-1.31504 -0.0438,-1.66571 -0.26301,-4.47113 -0.43835,-5.65468 -0.61369,-23.80223 -0.17533,-18.14755 0.17534,-19.94477 0.21918,-0.96436 0,-1.84106 -0.21917,-0.87669 -1.05203,-2.36707 l -1.44654,-2.54241 1.35887,-2.71775 q 2.84925,-5.74234 4.20813,-15.51747 0.83286,-5.65467 2.2794,-13.32574 1.49038,-7.67107 1.88489,-11.35318 0.13151,-1.53421 0.35068,-2.63008 0.26301,-1.09587 0.43835,-1.09587 0.48218,0 0.17534,-0.43834 -0.0877,-0.17534 0.0877,-0.39452 0.17533,-0.21917 0.56985,-0.30684 z m 5.47933,27.74735 q 0.74519,0 0.70135,-1.92873 -0.0438,-1.92872 -0.39451,-4.47114 l -0.39451,-2.54241 -0.35068,3.24377 q -0.35067,3.59444 -0.30684,4.64647 0.0877,1.05204 0.74519,1.05204 z"
         style="font-size:89.7734px;font-family:'Parents Suck';-inkscape-font-specification:'Parents Suck, Normal';text-align:center;text-anchor:middle;fill:#ff3434"
         id="path2600" />
      <path
         d="m 228.5306,182.09196 q 1.27121,-0.35068 4.69031,-0.39451 2.32324,-0.0438 2.93692,0.1315 0.65752,0.17534 0.96437,0.96437 0.48218,1.2712 1.53421,9.20528 1.05203,7.89024 1.35888,12.53671 l 0.35067,5.34783 0.8767,-2.54241 q 0.61368,-1.84106 1.00819,-2.23557 0.39452,-0.39451 1.84106,-0.48218 1.79722,-0.17534 2.49858,-0.70135 0.74518,-0.56986 0.74518,-1.75339 0,-1.05203 -0.65752,-1.49038 -0.65752,-0.48218 -2.63008,-0.74519 -1.09586,-0.17534 -1.53421,-0.39451 -0.43835,-0.26301 -0.30684,-0.65752 0.21917,-0.70136 0.35068,-7.01355 0.1315,-5.21632 0.61368,-7.10121 0.52602,-1.92873 1.92873,-2.58625 1.70955,-0.74519 6.09302,-0.43835 3.2876,0.30685 3.02459,0.96437 -0.26301,0.39451 0.26301,0.70135 0.74518,0.48218 0.39451,5.52317 -0.35068,4.99715 -1.66572,12.0107 -1.75339,9.42445 -2.2794,15.03529 -0.21918,2.36707 -0.74519,5.08482 -0.48218,2.71775 -1.0082,4.20813 -0.30684,1.0082 -0.56985,1.88489 -0.21917,0.83286 -0.30684,1.31504 -0.0877,0.48218 0,0.48218 0.17534,0.0438 -0.17534,0.21917 -0.21917,0.0877 -0.52602,0.21918 -1.00819,0.43834 -7.97791,0.17534 l -6.92587,-0.26301 -0.83286,-4.38347 q -0.78903,-4.38347 -0.78903,-10.21348 0,-4.47113 -0.52601,-8.37242 -0.52602,-3.90128 -2.32324,-12.44904 -1.27121,-6.26836 -1.1397,-8.85461 0.1315,-1.70955 0.35068,-2.19173 0.263,-0.52602 1.09586,-0.74519 z m 1.0082,2.32324 q 0,-0.30684 -0.17534,-0.52602 -0.1315,-0.21917 -0.35068,-0.21917 -0.17534,0 -0.21917,0.21917 -0.0438,0.21918 0.0438,0.52602 0.30685,0.78902 0.48219,0.78902 0.21917,0 0.21917,-0.78902 z m 1.79722,1.79722 q 0.21917,0 0.21917,-1.27121 0,-1.2712 -0.43834,-1.2712 -0.39451,0 -0.17534,1.2712 0.21917,1.27121 0.39451,1.27121 z m 14.33394,0.39451 q 0.26301,-0.92053 0,-1.53421 -0.17534,-0.39451 -0.21918,0.17534 -0.0438,0.263 -0.0438,0.70135 0,0.87669 0.1315,0.87669 0.0438,0.0438 0.13151,-0.21917 z m -11.39702,2.80542 q -0.56985,-1.49038 -0.65752,0.21917 0,0.21918 0,0.48218 0,0.96437 0.17534,1.0082 0.0877,0 0.26301,-0.26301 0.48218,-0.74519 0.21917,-1.44654 z m -1.75338,6.7067 q 0,-1.00819 -0.43835,-2.01639 -0.35068,-0.78902 -0.43835,-0.78902 -0.0438,0 -0.0438,0.78902 0,1.0082 0.48218,2.01639 0.35068,0.78903 0.39451,0.78903 0.0438,0 0.0438,-0.78903 z m 9.73129,18.84891 q 0,-0.78902 -0.21917,-0.78902 -0.17534,0 -0.48218,0.78902 -0.0877,0.30684 -0.0438,0.52602 0.0877,0.21917 0.26301,0.21917 0.17534,0 0.30684,-0.21917 0.17534,-0.21918 0.17534,-0.52602 z m -2.76158,1.27121 q 0.21917,0 0.21917,-0.52602 0,-0.52602 -0.52601,-0.52602 -0.52602,0 -0.21918,0.52602 0.30685,0.52602 0.52602,0.52602 z m 9.20528,5.4355 q 0.26301,-0.8767 0,-1.49038 -0.1315,-0.39452 -0.21917,0.17534 0,0.263 0,0.70135 0,0.87669 0.0877,0.87669 0.0877,0 0.1315,-0.263 z m -13.19424,0.74518 q 0.21918,-0.65752 -0.0438,-0.96436 -0.17534,-0.17534 -0.26301,0.21918 -0.0438,0.21917 0,0.43834 0,0.52602 0.13151,0.56985 0.0438,0 0.17533,-0.26301 z m -0.39451,4.99716 q 0.52602,0 0.52602,-0.48218 0,-0.52602 -0.52602,-0.52602 -0.48218,0 -0.48218,0.52602 0,0.48218 0.48218,0.48218 z"
         style="font-size:89.7734px;font-family:'Parents Suck';-inkscape-font-specification:'Parents Suck, Normal';text-align:center;text-anchor:middle;fill:#ff3434"
         id="path2602" />
      <path
         d="m 268.99,173.36886 q 1.18353,-0.30684 5.96151,-0.26301 4.77798,0 5.26016,0.35068 0.30685,0.17534 0.8767,2.2794 0.61368,2.06023 1.18353,4.82182 l 1.40271,6.7067 -1.97256,1.66572 q -1.40271,1.2712 -2.10406,2.98076 -0.70136,1.70955 -0.39451,3.19993 0.17533,0.78902 1.62188,1.62188 1.44654,0.78902 2.71775,0.78902 0.83286,0 1.09586,0.61369 0.35068,0.74519 1.0082,4.99715 0.8767,5.65467 2.10407,9.8628 1.2712,4.16429 1.2712,6.39986 v 2.27941 l -5.26016,-0.39452 q -5.21632,-0.35067 -5.567,-0.70135 -0.35068,-0.30684 -1.18354,-4.33963 -0.78902,-4.07663 -0.78902,-5.47934 0,-1.05203 -0.35068,-1.2712 -0.35068,-0.21918 -2.1479,-0.21918 -2.49857,0 -2.80542,0.83286 -0.30684,0.83286 -0.30684,5.87385 0,4.20813 -0.30684,4.86565 -0.21918,0.39451 -1.09587,0.83286 -1.31504,0.61368 -1.57805,2.14789 -0.21917,1.49038 0.39452,5.65468 0.56985,3.98895 0.70135,11.22167 0.17534,7.27656 -0.30684,8.5916 -0.17534,0.56985 -0.52602,0.96436 -0.35068,0.43835 -0.65752,0.43835 -0.87669,0 -1.22737,-1.18354 -0.30684,-1.1397 0.0438,-3.1561 0.70135,-4.29579 0.30684,-11.52851 -0.39451,-7.27656 -1.44655,-8.50393 -0.96436,-1.18354 -1.88489,-0.17534 -0.87669,1.0082 -0.65752,2.93692 0.13151,1.09587 -0.61368,2.54242 -0.39451,0.83285 -0.48218,2.10406 -0.0438,1.22737 0.17534,3.94512 0.39451,4.5588 0.70135,18.10372 0.30684,13.54491 0.48218,17.79687 0.13151,2.84926 0,3.50678 -0.0877,0.70135 -0.74519,0.70135 -0.56985,0 -0.78902,-0.35068 -0.21918,-0.35067 -0.26301,-1.31504 -0.0438,-1.66571 -0.26301,-4.47113 -0.43834,-5.65468 -0.61368,-23.80223 -0.17534,-18.14755 0.17534,-19.94477 0.21917,-0.96436 0,-1.84106 -0.21918,-0.87669 -1.05204,-2.36707 l -1.44654,-2.54241 1.35887,-2.71775 q 2.84926,-5.74234 4.20813,-15.51747 0.83286,-5.65467 2.2794,-13.32574 1.49038,-7.67107 1.8849,-11.35318 0.1315,-1.53421 0.35067,-2.63008 0.26301,-1.09587 0.43835,-1.09587 0.48218,0 0.17534,-0.43834 -0.0877,-0.17534 0.0877,-0.39452 0.17534,-0.21917 0.56985,-0.30684 z m 5.47933,27.74735 q 0.74519,0 0.70136,-1.92873 -0.0438,-1.92872 -0.39452,-4.47114 l -0.39451,-2.54241 -0.35068,3.24377 q -0.35067,3.59444 -0.30684,4.64647 0.0877,1.05204 0.74519,1.05204 z"
         style="font-size:89.7734px;font-family:'Parents Suck';-inkscape-font-specification:'Parents Suck, Normal';text-align:center;text-anchor:middle;fill:#ff3434"
         id="path2604" />
      <path
         d="m 308.5727,178.8482 q 2.2794,-0.70136 3.1561,-0.65752 0.92053,0.0438 1.79722,0.87669 1.0082,1.05203 1.0082,3.2876 0,1.57805 -0.26301,2.01639 -0.26301,0.39452 -1.66572,0.83286 -1.88489,0.65752 -2.54241,1.18354 -0.48218,0.39451 -0.52602,0.92053 -0.0877,1.44654 2.45475,16.39416 0.30684,1.66572 1.57804,9.11761 1.57805,9.11761 1.66572,11.48469 l 0.0438,2.36707 -3.19993,0.21917 q -2.63008,0.21917 -3.33144,-0.1315 -0.65752,-0.39452 -1.05203,-2.23557 -0.30684,-1.44655 -1.31504,-2.84925 -1.0082,-1.40271 -1.75339,-1.40271 -0.74519,0 -1.31504,-2.06023 -0.56985,-2.06023 -1.49038,-7.84641 -1.00819,-6.31219 -2.36707,-13.32574 -1.35887,-7.05738 -1.79722,-8.24092 -0.26301,-0.78902 -0.70135,-0.92052 -0.43835,-0.13151 -1.97256,0.0877 l -2.27941,0.35067 -0.52601,-1.97256 q -0.70136,-2.54241 -0.43835,-3.37527 0.26301,-0.87669 1.84106,-1.31504 1.88489,-0.52601 7.40805,-1.31504 5.52317,-0.83285 7.5834,-1.49037 z m 3.37527,4.29579 q 0.56985,0 0.56985,-0.48218 0,-0.52601 -0.26301,-0.52601 -0.21917,0 -0.52601,0.52601 -0.30684,0.48218 0.21917,0.48218 z m -15.38597,3.37527 q 0.17534,-0.17534 -0.21917,-0.21917 -0.17534,-0.0438 -0.43835,-0.0438 -0.96436,0.0438 -0.30684,0.30685 0.65752,0.263 0.96436,-0.0438 z m 18.49823,38.66218 q 0,-0.35068 -1.09586,-0.43835 -1.05204,-0.1315 -1.22737,0.17534 -0.17534,0.26301 0.39451,0.39451 0.26301,0.0877 0.61368,0.0877 1.31504,0 1.31504,-0.21917 z"
         style="font-size:89.7734px;font-family:'Parents Suck';-inkscape-font-specification:'Parents Suck, Normal';text-align:center;text-anchor:middle;fill:#ff3434"
         id="path2606" />
      <path
         d="m 318.87385,172.09766 0.0438,-1.13971 h 10.16965 q 6.13685,0 8.19708,0.13151 2.06023,0.1315 2.23557,0.56985 0.35067,0.92053 -0.0877,3.11226 -0.39451,2.19173 -1.0082,2.67392 -0.83286,0.65752 -3.98895,0.65752 -1.97256,0 -2.84926,-0.21918 -0.87669,-0.26301 -1.84105,-1.05203 -1.35888,-1.1397 -1.88489,-1.18354 -0.48219,-0.0877 -1.40271,0.74519 -0.8767,0.83286 -0.92053,2.10407 -0.0438,1.2712 0.70135,2.23557 0.78903,0.96436 1.97256,0.96436 0.70136,0 0.83286,0.52601 0.13151,0.61369 0,3.94512 l -0.21917,4.47114 h 4.60264 4.64647 l 0.13151,3.02459 q 0.17534,2.98076 -0.48218,3.41911 -0.65752,0.43834 -4.38347,0.43834 h -3.68211 v 2.45474 q 0,2.45475 -0.56985,5.47934 -0.56985,3.02459 -0.21918,5.61084 l 0.30685,2.54241 3.59444,-0.13151 q 3.50677,-0.17534 4.77798,0.21918 1.31504,0.39451 2.54241,2.01639 1.09586,1.44654 1.35887,3.2876 0.30685,1.79722 -0.43834,2.71775 -0.48219,0.61369 -0.0877,3.94512 0.43834,3.2876 0.74519,6.88204 0.35067,3.59445 0.48218,3.85745 0.17534,0.21918 -0.30685,3.46294 -0.43834,3.2876 0.0877,3.98896 0.56985,0.70135 -0.0877,2.98075 -0.78902,2.76159 -1.75338,2.67392 -0.92053,-0.0877 -0.96436,-2.58625 0,-1.1397 0.21917,-2.54241 0.48218,-3.02459 0.48218,-6.96971 0,-3.98895 -0.48218,-7.40806 -0.52602,-3.63828 -0.87669,-4.51497 -0.30685,-0.87669 -1.18354,-0.87669 -1.88489,0 -1.92873,3.4191 -0.0438,1.66572 -0.52601,2.58625 -0.43835,0.92053 -0.0877,5.52317 0.35068,4.5588 0.52601,16.35033 0.13151,11.0025 0.21918,13.19423 0.1315,2.23557 0.48218,3.2876 0.17534,0.52602 0.1315,1.0082 0,0.52602 -0.21917,0.70135 -0.48218,0.48219 -0.0438,2.63008 0.52601,2.76159 0.39451,3.59445 -0.13151,0.87669 -1.05203,0.87669 -0.70136,0 -0.83286,-0.21917 -0.43835,-0.70136 -0.61369,-8.98611 -0.0438,-2.06023 -0.17534,-12.53672 -0.17534,-9.8628 -0.48218,-17.8407 -0.30684,-7.97791 -0.56985,-8.7231 -0.21917,-0.56985 0.48218,-1.53422 0.74519,-1.05203 0.65752,-2.10406 -0.0438,-1.05203 -1.0082,-2.76159 l -1.05203,-1.88489 -5.87384,-0.35067 q -5.83001,-0.35068 -6.53137,-0.61369 -0.26301,-0.0877 -0.56985,-0.74519 -0.30684,-0.65752 -0.43835,-1.40271 -0.21917,-1.40271 -0.263,-13.06273 -0.0438,-11.66002 0.0877,-22.48718 0.17533,-10.871 0.39451,-10.30115 0.35067,0.70136 0.39451,0.70136 0.0877,-0.0438 0.0877,-0.83286 z m 1.09587,2.71775 q 0.0438,1.00819 0.30684,0.35067 0.26301,-0.70135 -0.0438,-1.00819 -0.17534,-0.17534 -0.21917,0.263 -0.0438,0.17534 -0.0438,0.39452 z m 14.20243,0.56985 q -0.61369,-0.56985 -2.1479,-0.61369 -0.61369,0.0877 -0.61369,0.26301 0.30685,0.52602 1.66572,0.52602 1.1397,-0.0438 1.09587,-0.17534 z m -11.35318,11.0025 q 0.26301,-0.65752 -0.0438,-0.96436 -0.17533,-0.17534 -0.21917,0.21917 -0.0438,0.17534 -0.0438,0.43835 0.0438,0.52601 0.1315,0.56985 0.0877,0 0.17534,-0.26301 z m 0.78902,2.4109 q -0.21917,-1.49037 -0.39451,-1.49037 -0.21917,0 -0.26301,0.65752 0,0.61368 0.13151,1.31504 0.1315,0.65752 0.30684,0.78902 0.17534,0.0877 0.21917,-0.17534 0.0877,-0.39451 0,-1.09587 z m 1.79722,2.71775 q 0.26301,-0.61368 0,-1.2712 -0.17533,-0.39451 -0.21917,0.1315 -0.0438,0.21918 -0.0438,0.52602 0,0.78902 0.1315,0.78902 0.0438,-0.0438 0.1315,-0.17534 z m 1.49038,5.87385 q 0.21918,-0.87669 0,-1.79722 -0.1315,-0.52602 -0.17534,0.21917 -0.0438,0.26301 -0.0438,0.70136 0,1.18353 0.1315,1.09586 0.0438,-0.0438 0.0877,-0.21917 z m -4.95331,16.48183 q 0.43834,0.74519 0.1315,-7.40805 -0.26301,-8.15325 -0.43835,-8.37243 -0.17534,-0.21917 -0.21917,3.59445 0,3.81361 0.1315,7.8464 0.17534,4.03279 0.39452,4.33963 z m 6.53136,-13.89559 q 0.26301,-0.92052 0,-1.53421 -0.17534,-0.39451 -0.21917,0.17534 -0.0438,0.26301 -0.0438,0.70135 0,0.8767 0.13151,0.8767 0.0438,0 0.1315,-0.21918 z m -1.53421,5.304 q 0.17534,-2.19173 0,-4.07662 -0.13151,-0.96437 -0.17534,0.17533 -0.0438,0.70136 -0.0438,2.0164 0,2.58624 0.13151,2.45474 0.0438,-0.0438 0.0877,-0.56985 z m -7.7149,2.84925 q 0.263,-0.87669 0,-1.79722 -0.13151,-0.52601 -0.17534,0.21918 -0.0438,0.263 -0.0438,0.70135 0,1.18354 0.13151,1.09587 0.0438,-0.0438 0.0877,-0.21918 z m 7.58339,8.32859 q -1.00819,-0.48218 -1.75338,-0.48218 -0.48218,-0.0438 -0.52602,0.0438 0,0.0438 0.26301,0.26301 0.0877,0.0438 0.26301,0.17534 0.74519,0.48218 1.75338,0.48218 0.78903,-0.0438 0.78903,-0.0877 0,-0.0877 -0.78903,-0.39451 z m -0.87669,1.88489 q 0.78902,-0.1315 -0.17534,-0.17534 -0.43835,-0.0438 -1.22737,-0.0438 -1.84106,0 -1.70955,0.1315 0,0.0438 0.30684,0.0877 1.40271,0.17534 2.80542,0 z"
         style="font-size:89.7734px;font-family:'Parents Suck';-inkscape-font-specification:'Parents Suck, Normal';text-align:center;text-anchor:middle;fill:#ff3434"
         id="path2608" />
    </g>
  </g>
</svg>
